<svg version="1.1" id="Layer_1" xmlns="http://www.w3.org/2000/svg" xmlns:xlink="http://www.w3.org/1999/xlink" x="0px" y="0px" viewBox="0 0 150 150" style="enable-background:new 0 0 50 50;" xml:space="preserve" width="150" height="150"><style type="text/css">
	.st0{fill:#BE2126;}
</style><g><path class="st0" d="M97.2 52.8c-0.3 -3 -1.5 -5.7 -3.3 -8.1c-4.5 -6 -13.2 -9 -20.4 -7.8c-1.8 0.3 -3.6 1.2 -4.8 2.7c0 0 0 0 0 0V24c0 -9 -7.2 -16.2 -16.2 -16.2c0 0 0 0 0 0v63.3c0 9 7.2 16.2 16.2 16.2c0 0 0 0 0 0V42c0.3 -0.3 0.3 -0.6 0.6 -0.9c0.6 -0.6 1.8 -1.5 2.4 -1.8c2.4 -1.5 5.7 -1.5 7.5 0.9c1.2 1.5 1.8 3.3 1.8 4.5v0v43.8c0 9 7.2 16.2 16.2 16.2c0 0 0 0 0 0V54.9C97.5 54.3 97.2 53.4 97.2 52.8"/><g><path class="st0" d="M17.1 115.8h2.4l2.1 4.8L24 115.8h2.4l-3.6 6.6V126H20.7v-3.6L17.1 115.8z"/><path class="st0" d="M33.3 126c-3 0 -5.4 -2.1 -5.4 -5.4c0 -3 2.4 -5.4 5.4 -5.4c3 0 5.4 2.1 5.4 5.4C38.4 123.9 36 126 33.3 126zM33.3 124.2c1.8 0 3.3 -1.2 3.3 -3.6s-1.2 -3.3 -3.3 -3.3c-1.8 0 -3.3 1.2 -3.3 3.3S31.2 124.2 33.3 124.2z"/><path class="st0" d="M41.1 115.5h2.1v6.3c0 1.5 0.9 2.1 2.1 2.1c1.2 0 2.1 -0.6 2.1 -2.1v-6.3h2.1v6.3c0 2.7 -2.1 4.2 -4.2 4.2c-2.4 0 -4.2 -1.2 -4.2 -4.2V115.5z"/><path class="st0" d="M57.3 115.8c2.4 0 3.6 1.5 3.6 3.3c0 1.2 -0.6 2.4 -2.4 3l2.4 4.2h-2.4l-2.4 -3.9h-0.9V126h-2.1v-10.2H57.3zM57 117.3h-1.8v3H57c1.2 0 1.8 -0.6 1.8 -1.5C58.8 117.9 58.2 117.3 57 117.3z"/><path class="st0" d="M73.8 126h-4.5v-10.2h4.2c2.1 0 3.3 1.2 3.3 2.7c0 1.2 -0.9 2.1 -1.8 2.4c1.2 0.3 2.1 1.2 2.1 2.4C77.4 124.8 75.9 126 73.8 126zM73.5 117.3h-1.8V120h1.8c0.9 0 1.5 -0.3 1.5 -1.2C75 117.9 74.4 117.3 73.5 117.3zM73.5 121.5h-2.1v2.7h2.1c0.9 0 1.5 -0.6 1.5 -1.5C75.3 122.1 74.4 121.5 73.5 121.5z"/><path class="st0" d="M86.7 117.3h-3.9V120h3.6v1.5h-3.6v2.7h3.9V126h-6v-10.5h6V117.3z"/><path class="st0" d="M97.2 123.9H93L92.4 126h-2.1l3.6 -10.5h2.4l3.6 10.5h-2.1L97.2 123.9zM95.1 118.2l-1.5 4.2h3L95.1 118.2z"/><path class="st0" d="M102.3 115.5h2.1v6.3c0 1.5 0.9 2.1 2.1 2.1c1.2 0 2.1 -0.6 2.1 -2.1v-6.3h2.1v6.3c0 2.7 -2.1 4.2 -4.2 4.2c-2.4 0 -4.2 -1.2 -4.2 -4.2V115.5z"/><path class="st0" d="M113.7 115.8h7.5v1.8h-2.7V126h-2.1v-8.7h-2.7V115.8z"/><path class="st0" d="M123.6 115.8H126l2.1 4.8l2.1 -4.8h2.4l-3.6 6.6V126h-2.1v-3.6L123.6 115.8z"/><path class="st0" d="M31.5 132h2.4l2.1 4.8l2.1 -4.8h2.4l-3.6 6.6v3.6h-2.1v-3.6L31.5 132z"/><path class="st0" d="M47.4 142.5c-3 0 -5.4 -2.1 -5.4 -5.4c0 -3 2.4 -5.4 5.4 -5.4c3 0 5.4 2.1 5.4 5.4C52.8 140.1 50.4 142.5 47.4 142.5zM47.4 140.4c1.8 0 3.3 -1.2 3.3 -3.6s-1.2 -3.3 -3.3 -3.3c-1.8 0 -3.3 1.2 -3.3 3.3S45.6 140.4 47.4 140.4z"/><path class="st0" d="M55.8 132h2.1v6.3c0 1.5 0.9 2.1 2.1 2.1c1.2 0 2.1 -0.6 2.1 -2.1V132h2.1v6.3c0 2.7 -2.1 4.2 -4.2 4.2c-2.4 0 -4.2 -1.2 -4.2 -4.2V132z"/><path class="st0" d="M71.4 132c2.4 0 3.6 1.5 3.6 3.3c0 1.2 -0.6 2.4 -2.4 3l2.4 4.2h-2.4l-2.4 -3.9h-0.9v3.9h-2.1V132H71.4zM71.4 133.8h-1.8v3h1.8c1.2 0 1.8 -0.6 1.8 -1.5C73.2 134.4 72.6 133.8 71.4 133.8z"/><path class="st0" d="M82.5 132h2.1l1.8 8.1l2.1 -8.1h2.4l2.1 8.1l1.8 -8.1h2.1l-3 10.2h-2.4L89.7 135l-2.1 7.5l-2.4 0L82.5 132z"/><path class="st0" d="M105 140.4h-4.2l-0.6 2.1h-2.1l3.6 -10.5h2.4l3.6 10.5h-2.1L105 140.4zM102.9 134.4l-1.5 4.2h3L102.9 134.4z"/><path class="st0" d="M109.2 132h2.4l2.1 4.8l2.1 -4.8h2.4l-3.6 6.6v3.6h-2.1v-3.6L109.2 132z"/></g></g></svg>