<?xml version="1.0" standalone="no"?>
<!DOCTYPE svg PUBLIC "-//W3C//DTD SVG 20010904//EN"
 "http://www.w3.org/TR/2001/REC-SVG-20010904/DTD/svg10.dtd">
<svg version="1.0" xmlns="http://www.w3.org/2000/svg"
 width="598.000000pt" height="417.000000pt" viewBox="0 0 598.000000 417.000000"
 preserveAspectRatio="xMidYMid meet">

<g transform="translate(0.000000,417.000000) scale(0.100000,-0.100000)"
fill="#000000" stroke="none">
<path d="M590 3660 c0 -36 3 -40 25 -40 18 0 26 7 31 25 7 29 -10 55 -37 55
-15 0 -19 -8 -19 -40z m45 0 c0 -16 -6 -26 -17 -28 -14 -3 -18 3 -18 28 0 25
4 31 18 28 11 -2 17 -12 17 -28z"/>
<path d="M664 3675 c-8 -34 1 -55 26 -55 25 0 34 21 26 55 -4 16 -13 25 -26
25 -13 0 -22 -9 -26 -25z m44 -18 c3 -22 -1 -27 -17 -27 -15 0 -21 6 -21 23 0
46 33 49 38 4z"/>
<path d="M740 3686 c-20 -25 -8 -61 20 -63 25 -3 25 -3 3 7 -33 13 -28 49 7
63 13 4 12 6 -1 6 -9 1 -22 -6 -29 -13z"/>
<path d="M807 3692 c6 -4 13 -23 16 -42 l4 -35 1 37 c2 25 7 38 20 41 9 3 1 5
-18 6 -19 0 -30 -3 -23 -7z"/>
<path d="M871 3697 c-1 -4 7 -23 18 -42 17 -33 19 -34 24 -13 2 13 7 32 11 43
5 15 4 14 -5 -2 -7 -13 -15 -23 -19 -23 -4 0 -12 10 -18 23 -6 12 -11 19 -11
14z"/>
<path d="M952 3658 l1 -43 4 38 c3 24 9 37 16 34 7 -2 11 -12 10 -22 -1 -12 2
-14 10 -6 12 12 -8 41 -29 41 -10 0 -14 -12 -12 -42z"/>
<path d="M1021 3658 c1 -24 3 -35 6 -26 2 9 12 19 21 21 15 4 15 5 0 6 -10 0
-18 7 -18 15 0 8 8 17 18 19 13 4 11 5 -5 6 -21 1 -23 -3 -22 -41z"/>
<path d="M520 3492 c0 -23 4 -42 10 -42 6 0 8 16 5 36 -6 52 -15 55 -15 6z"/>
<path d="M746 3523 c7 -4 14 -19 17 -33 4 -22 5 -21 4 4 -1 17 -9 31 -17 33
-10 3 -11 2 -4 -4z"/>
<path d="M599 3509 c-10 -6 -10 -9 -1 -9 6 0 13 -12 13 -27 2 -28 2 -28 6 -3
3 14 9 28 15 31 6 4 4 9 -5 12 -7 3 -20 1 -28 -4z"/>
<path d="M559 3478 c4 -28 6 -29 9 -9 2 13 0 27 -5 32 -6 6 -7 -3 -4 -23z"/>
<path d="M684 3480 c1 -17 4 -30 9 -30 10 0 9 48 -2 54 -4 3 -8 -8 -7 -24z"/>
<path d="M662 3475 c0 -16 2 -22 5 -12 2 9 2 23 0 30 -3 6 -5 -1 -5 -18z"/>
<path d="M712 3475 c0 -16 2 -22 5 -12 2 9 2 23 0 30 -3 6 -5 -1 -5 -18z"/>
<path d="M661 3317 c-1 -28 3 -46 9 -42 5 3 7 12 4 20 -4 9 3 18 17 24 23 9
23 10 2 10 -12 1 -24 9 -26 19 -3 9 -5 -5 -6 -31z"/>
<path d="M910 3320 c0 -40 -15 -54 -27 -24 -3 9 0 20 8 26 12 8 11 9 -1 5 -8
-2 -15 -15 -15 -28 0 -17 6 -25 23 -27 20 -3 22 1 22 42 0 25 -2 46 -5 46 -3
0 -5 -18 -5 -40z"/>
<path d="M815 3330 c-4 -6 2 -10 12 -11 14 0 15 -2 3 -6 -34 -13 -34 -43 0
-43 24 0 33 15 25 39 -7 22 -32 35 -40 21z m25 -40 c0 -5 -4 -10 -10 -10 -5 0
-10 5 -10 10 0 6 5 10 10 10 6 0 10 -4 10 -10z"/>
<path d="M735 3320 c-12 -19 6 -50 28 -49 21 0 21 1 -3 12 l-25 11 27 3 c18 3
25 9 21 19 -6 16 -39 19 -48 4z m32 -6 c-3 -3 -12 -4 -19 -1 -8 3 -5 6 6 6 11
1 17 -2 13 -5z"/>
<path d="M711 3294 c0 -11 3 -14 6 -6 3 7 2 16 -1 19 -3 4 -6 -2 -5 -13z"/>
<path d="M958 3174 c-10 -16 6 -67 23 -72 10 -2 10 -1 2 5 -6 4 -13 24 -15 43
-2 19 -6 30 -10 24z"/>
<path d="M801 3128 c2 -30 2 -30 6 -6 3 18 9 25 19 21 8 -3 14 0 14 6 0 6 -9
11 -20 11 -16 0 -20 -6 -19 -32z"/>
<path d="M852 3130 c0 -19 2 -27 5 -17 2 9 2 25 0 35 -3 9 -5 1 -5 -18z"/>
<path d="M877 3153 c-14 -14 -6 -42 14 -48 11 -4 23 -4 26 -1 4 3 -2 6 -11 6
-14 0 -17 6 -14 25 5 24 -2 32 -15 18z"/>
<path d="M251 3124 c0 -11 3 -14 6 -6 3 7 2 16 -1 19 -3 4 -6 -2 -5 -13z"/>
<path d="M1050 3127 c0 -8 -8 -18 -17 -20 -17 -4 -17 -5 0 -6 18 -1 35 25 23
36 -3 4 -6 -1 -6 -10z"/>
<path d="M949 2989 c-10 -6 -10 -9 -1 -9 6 0 13 -12 13 -27 2 -28 2 -28 6 -3
3 14 9 28 15 31 6 4 4 9 -5 12 -7 3 -20 1 -28 -4z"/>
<path d="M801 2957 l1 -32 8 30 8 30 2 -30 c1 -16 4 -23 7 -15 14 43 16 44 23
15 l8 -30 1 31 c1 28 -2 31 -29 32 -27 1 -30 -2 -29 -31z"/>
<path d="M882 2978 c-7 -7 -12 -18 -12 -25 0 -17 37 -36 45 -23 3 5 -1 10 -9
10 -9 0 -16 9 -16 20 0 11 5 20 11 20 6 0 9 -7 6 -14 -4 -10 -1 -13 8 -10 16
7 9 34 -9 34 -7 0 -17 -5 -24 -12z"/>
<path d="M1033 2983 c14 -4 18 -12 14 -29 -2 -13 0 -24 4 -24 5 0 9 14 9 30 0
25 -4 30 -22 29 -19 -1 -20 -2 -5 -6z"/>
<path d="M1015 2951 c-3 -5 -2 -12 3 -15 5 -3 9 1 9 9 0 17 -3 19 -12 6z"/>
<path d="M1029 2831 c9 -6 12 -20 9 -40 -2 -17 -1 -31 4 -31 4 0 8 18 8 40 0
31 -4 40 -17 40 -14 0 -15 -2 -4 -9z"/>
<path d="M2148 2795 c3 -33 8 -45 20 -45 12 0 13 3 4 12 -7 7 -12 27 -12 45 0
18 -3 33 -8 33 -4 0 -6 -20 -4 -45z"/>
<path d="M949 2819 c-10 -6 -10 -9 -1 -9 6 0 12 -11 12 -24 0 -14 8 -27 18
-31 14 -5 15 -4 5 6 -16 16 -17 46 -1 51 8 3 7 6 -3 10 -9 3 -22 2 -30 -3z"/>
<path d="M1929 2819 c-10 -6 -10 -9 -1 -9 6 0 12 -11 12 -24 0 -14 8 -27 18
-31 14 -5 15 -4 5 6 -16 16 -17 46 -1 51 8 3 7 6 -3 10 -9 3 -22 2 -30 -3z"/>
<path d="M2069 2819 c-10 -6 -10 -9 -1 -9 6 0 12 -11 12 -24 0 -13 7 -26 15
-30 8 -3 15 -1 15 4 0 6 -4 10 -10 10 -14 0 -12 38 2 42 8 3 7 6 -3 10 -9 3
-22 2 -30 -3z"/>
<path d="M813 2813 c9 -2 25 -2 35 0 9 3 1 5 -18 5 -19 0 -27 -2 -17 -5z"/>
<path d="M888 2813 c6 -2 12 -13 12 -23 0 -10 -6 -20 -12 -23 -7 -2 -10 -8 -6
-12 13 -13 28 6 28 36 0 21 -5 29 -17 28 -11 0 -13 -3 -5 -6z"/>
<path d="M1090 2805 c-14 -17 -7 -45 12 -45 9 0 8 3 -2 10 -12 8 -9 10 13 10
25 0 27 2 17 20 -13 24 -23 25 -40 5z m30 -5 c0 -5 -7 -10 -16 -10 -8 0 -12 5
-9 10 3 6 10 10 16 10 5 0 9 -4 9 -10z"/>
<path d="M2004 2785 c0 -23 4 -35 13 -35 14 0 17 27 7 54 -10 27 -19 18 -20
-19z"/>
<path d="M2207 2814 c-22 -22 10 -74 35 -58 9 6 5 10 -12 15 -25 7 -25 7 -2 8
17 1 22 6 20 18 -3 19 -29 29 -41 17z m33 -14 c0 -5 -7 -10 -16 -10 -8 0 -12
5 -9 10 3 6 10 10 16 10 5 0 9 -4 9 -10z"/>
<path d="M820 2771 c0 -5 7 -12 16 -15 14 -5 15 -4 4 9 -14 17 -20 19 -20 6z"/>
<path d="M743 2625 c0 -27 2 -38 4 -22 2 15 8 27 13 27 5 0 11 -12 13 -27 4
-26 4 -26 6 5 1 22 -4 32 -13 32 -8 0 -17 8 -19 18 -3 9 -5 -5 -4 -33z"/>
<path d="M983 2630 c0 -25 2 -35 4 -22 2 12 2 32 0 45 -2 12 -4 2 -4 -23z"/>
<path d="M844 2632 c5 -8 -2 -12 -18 -12 -14 0 -26 -4 -26 -8 0 -14 23 -32 40
-31 9 0 5 5 -10 12 l-25 11 28 4 c28 3 35 16 15 28 -7 4 -8 3 -4 -4z"/>
<path d="M903 2626 c-7 -8 -17 -16 -24 -18 -18 -6 -1 -28 22 -28 14 0 19 7 19
30 0 34 0 34 -17 16z m7 -26 c0 -5 -7 -10 -16 -10 -8 0 -12 5 -9 10 3 6 10 10
16 10 5 0 9 -4 9 -10z"/>
<path d="M945 2630 c-9 -14 4 -50 17 -50 6 0 6 6 -2 15 -10 12 -10 18 0 30 8
9 9 15 2 15 -6 0 -14 -5 -17 -10z"/>
<path d="M662 2454 c2 -29 8 -39 21 -40 12 -1 13 -1 2 3 -17 5 -20 24 -6 39 6
5 4 14 -6 23 -12 11 -14 8 -11 -25z"/>
<path d="M841 2458 c-1 -26 -6 -38 -18 -41 -17 -4 -17 -5 0 -6 21 -1 30 18 24
56 -3 24 -4 23 -6 -9z"/>
<path d="M707 2449 c4 -13 8 -18 11 -10 2 7 -1 18 -6 23 -8 8 -9 4 -5 -13z"/>
<path d="M734 2455 c-8 -21 2 -45 19 -45 20 0 40 27 33 45 -7 19 -45 20 -52 0z
m41 -15 c0 -8 -8 -16 -17 -18 -13 -2 -18 3 -18 18 0 15 5 20 18 18 9 -2 17
-10 17 -18z"/>
<path d="M882 2438 c9 -24 8 -33 0 -36 -7 -2 -12 -8 -12 -13 0 -4 6 -6 14 -3
17 6 42 62 32 71 -3 3 -6 -1 -6 -10 0 -9 -4 -17 -10 -17 -5 0 -10 6 -10 14 0
8 -4 17 -10 21 -5 3 -4 -8 2 -27z"/>
<path d="M884 2308 c-4 -7 -3 -8 4 -4 8 5 12 -3 12 -23 0 -16 -6 -32 -12 -34
-8 -3 -6 -6 5 -6 13 -1 17 7 17 39 0 39 -12 52 -26 28z"/>
<path d="M2342 2280 c0 -33 2 -38 7 -21 9 35 29 37 34 4 4 -26 4 -25 6 6 1 28
-2 33 -18 28 -13 -3 -21 1 -24 12 -3 9 -5 -4 -5 -29z"/>
<path d="M2424 2308 c-4 -7 -3 -8 4 -4 8 5 12 -3 12 -23 0 -16 -6 -32 -12 -34
-7 -3 -4 -6 7 -6 18 -1 20 4 17 39 -4 40 -14 50 -28 28z"/>
<path d="M808 2279 c-3 -17 -1 -32 4 -35 4 -3 8 6 8 20 0 14 5 26 10 26 6 0
10 -11 10 -25 0 -14 5 -25 10 -25 12 0 13 30 2 46 -4 6 -14 13 -23 17 -13 4
-18 -2 -21 -24z"/>
<path d="M255 2280 c-3 -5 -1 -10 4 -10 6 0 11 5 11 10 0 6 -2 10 -4 10 -3 0
-8 -4 -11 -10z"/>
<path d="M2412 2110 c0 -33 2 -39 7 -21 9 34 29 37 34 6 4 -24 4 -24 3 2 -1
18 -7 28 -16 28 -8 0 -18 7 -22 15 -4 8 -6 -5 -6 -30z"/>
<path d="M811 2117 c0 -12 3 -16 6 -9 8 21 23 13 23 -13 0 -14 5 -25 10 -25
12 0 13 30 2 46 -4 6 -15 13 -24 17 -14 5 -18 1 -17 -16z"/>
<path d="M911 2123 c0 -12 -10 -28 -21 -36 -21 -14 -21 -14 2 -20 24 -7 42 3
20 10 -10 4 -10 8 -2 18 7 8 10 22 7 32 -4 14 -5 14 -6 -4z"/>
<path d="M2515 2130 c4 -6 1 -17 -5 -25 -7 -9 -8 -15 -2 -15 10 0 22 23 22 41
0 5 -5 9 -11 9 -5 0 -7 -5 -4 -10z"/>
<path d="M250 2115 c-7 -8 -16 -12 -21 -9 -11 6 -12 -7 -1 -21 4 -7 16 -2 30
11 13 12 19 25 14 28 -5 3 -15 -1 -22 -9z"/>
<path d="M810 1769 c0 -5 5 -7 10 -4 6 3 10 8 10 11 0 2 -4 4 -10 4 -5 0 -10
-5 -10 -11z"/>
<path d="M844 1757 c1 -15 -5 -22 -16 -21 -11 1 -18 -5 -18 -17 0 -18 2 -18
25 3 25 22 32 43 17 52 -5 3 -8 -5 -8 -17z"/>
<path d="M3950 1738 c0 -24 4 -38 8 -32 4 6 15 13 25 17 10 4 17 17 17 32 0
20 -5 25 -25 25 -23 0 -25 -4 -25 -42z m40 12 c0 -11 -7 -20 -15 -20 -8 0 -15
9 -15 20 0 11 7 20 15 20 8 0 15 -9 15 -20z"/>
<path d="M810 1613 c0 -15 5 -21 14 -17 20 8 30 -14 14 -33 -11 -14 -11 -16 2
-11 23 7 25 47 3 55 -10 4 -21 11 -25 17 -5 6 -8 1 -8 -11z"/>
<path d="M1022 1613 c-8 -8 -9 -13 -2 -13 5 0 10 -11 10 -25 0 -14 4 -25 9
-25 5 0 7 9 4 21 -3 12 -1 24 4 28 7 4 7 10 -1 17 -9 8 -15 7 -24 -3z"/>
<path d="M3461 1593 c0 -24 3 -43 7 -43 5 0 8 10 8 21 -1 12 5 24 13 27 10 3
13 -2 9 -22 -6 -28 6 -36 16 -10 8 20 -12 47 -30 40 -7 -3 -15 3 -17 12 -3 9
-5 -2 -6 -25z"/>
<path d="M949 1609 c-10 -6 -10 -9 -1 -9 6 0 13 -12 13 -27 2 -28 2 -28 6 -3
3 14 9 28 15 31 6 4 4 9 -5 12 -7 3 -20 1 -28 -4z"/>
<path d="M3677 1614 c-6 -6 4 -54 13 -59 4 -2 5 6 3 19 -4 18 0 25 14 28 16 3
15 5 -4 10 -12 3 -24 4 -26 2z"/>
<path d="M873 1585 c2 -23 7 -31 25 -33 12 -2 22 1 22 6 0 5 -8 9 -17 8 -10 0
-20 9 -24 24 -7 23 -8 23 -6 -5z"/>
<path d="M1115 1596 c16 -12 17 -16 6 -30 -7 -9 -9 -16 -3 -16 5 0 13 7 16 16
7 18 -10 44 -27 44 -6 0 -2 -6 8 -14z"/>
<path d="M1166 1602 c-2 -4 4 -8 15 -8 10 0 19 4 19 8 0 4 -6 8 -14 8 -8 0
-17 -4 -20 -8z"/>
<path d="M3534 1580 c1 -18 7 -26 24 -28 19 -3 22 1 21 30 -2 30 -2 31 -6 6
-5 -34 -30 -37 -36 -5 -3 19 -4 19 -3 -3z"/>
<path d="M3608 1585 c2 -14 9 -28 14 -31 5 -3 6 5 3 19 -5 19 -2 26 12 30 13
3 10 5 -8 6 -23 1 -26 -2 -21 -24z"/>
<path d="M3747 1603 c-10 -9 -8 -53 2 -53 4 0 6 12 3 27 -4 23 -2 25 17 20 11
-3 19 -1 15 4 -6 11 -28 12 -37 2z"/>
<path d="M3811 1576 c1 -28 2 -29 8 -7 9 34 29 37 34 6 4 -24 4 -24 3 2 -1 22
-6 28 -23 29 -19 1 -23 -4 -22 -30z"/>
<path d="M1080 1581 c0 -11 4 -22 9 -25 4 -3 6 6 3 19 -5 30 -12 33 -12 6z"/>
<path d="M3775 1560 c-3 -5 -1 -10 4 -10 6 0 11 5 11 10 0 6 -2 10 -4 10 -3 0
-8 -4 -11 -10z"/>
<path d="M743 1420 c0 -25 2 -35 4 -22 2 12 2 32 0 45 -2 12 -4 2 -4 -23z"/>
<path d="M770 1425 c7 -8 9 -23 6 -32 -6 -14 -4 -15 4 -7 14 14 4 54 -12 54
-6 0 -6 -6 2 -15z"/>
<path d="M812 1428 c-14 -14 -16 -35 -4 -42 5 -3 8 4 8 16 -1 12 5 23 11 25
19 7 29 -27 12 -38 -10 -6 -11 -9 -1 -9 19 0 26 28 12 45 -15 18 -22 19 -38 3z"/>
<path d="M882 1428 c-14 -14 -16 -35 -3 -42 5 -4 7 3 4 14 -4 14 1 22 18 29
14 6 18 10 9 10 -9 1 -21 -4 -28 -11z"/>
<path d="M953 1404 c9 -29 8 -37 -4 -45 -9 -6 -10 -9 -2 -9 13 0 26 20 43 65
7 17 7 24 0 20 -6 -3 -10 -13 -10 -21 0 -8 -4 -14 -10 -14 -5 0 -10 6 -10 14
0 8 -4 17 -9 20 -5 4 -4 -10 2 -30z"/>
<path d="M906 1395 c-3 -8 -1 -15 4 -15 6 0 10 7 10 15 0 8 -2 15 -4 15 -2 0
-6 -7 -10 -15z"/>
<path d="M1026 1272 c-3 -5 -1 -22 4 -38 8 -29 8 -29 9 9 1 36 -3 45 -13 29z"/>
<path d="M888 1259 c6 -7 12 -21 12 -30 0 -10 -6 -20 -12 -22 -7 -3 -4 -6 8
-6 17 -1 20 4 16 28 -2 16 -11 32 -21 36 -13 5 -14 4 -3 -6z"/>
<path d="M670 1250 c0 -6 7 -13 15 -16 20 -8 19 -21 -2 -27 -16 -4 -16 -5 -1
-6 27 -2 32 19 9 40 -12 11 -21 15 -21 9z"/>
<path d="M737 1247 c-3 -8 -1 -20 5 -28 8 -11 9 -11 5 2 -3 9 0 22 6 28 8 8 8
11 0 11 -6 0 -13 -6 -16 -13z"/>
<path d="M810 1235 c0 -14 2 -25 4 -25 2 0 6 11 8 25 3 14 1 25 -3 25 -5 0 -9
-11 -9 -25z"/>
<path d="M950 1220 c0 -22 2 -40 4 -40 2 0 6 18 8 40 2 22 0 40 -4 40 -5 0 -8
-18 -8 -40z"/>
<path d="M985 1235 c0 -13 3 -21 8 -18 4 2 7 10 7 18 0 8 -3 16 -7 18 -5 3 -8
-5 -8 -18z"/>
<path d="M1098 584 c-10 -16 6 -67 23 -72 10 -2 10 -1 2 5 -6 4 -13 24 -15 43
-2 19 -6 30 -10 24z"/>
<path d="M740 562 c0 -4 9 -15 20 -25 11 -9 20 -13 20 -9 0 4 -9 15 -20 25
-11 9 -20 13 -20 9z"/>
<path d="M812 543 c2 -18 9 -28 21 -29 14 -2 14 -1 1 3 -11 3 -14 13 -11 29 2
13 0 24 -5 24 -5 0 -8 -12 -6 -27z"/>
<path d="M880 540 c0 -16 2 -30 4 -30 2 0 6 14 8 30 3 17 1 30 -4 30 -4 0 -8
-13 -8 -30z"/>
<path d="M967 549 c4 -12 0 -25 -8 -30 -11 -7 -9 -9 7 -9 17 0 20 5 16 30 -2
17 -8 30 -12 30 -5 0 -6 -9 -3 -21z"/>
<path d="M1018 563 c7 -3 16 -2 19 1 4 3 -2 6 -13 5 -11 0 -14 -3 -6 -6z"/>
<path d="M1057 552 c4 -16 -1 -24 -18 -32 -17 -7 -19 -9 -5 -7 26 3 44 33 29
48 -9 9 -11 7 -6 -9z"/>
<path d="M597 383 c7 -47 13 -55 13 -20 0 35 17 35 23 0 4 -26 4 -26 6 5 1 22
-3 32 -14 32 -8 0 -15 5 -15 10 0 6 -4 10 -9 10 -6 0 -7 -17 -4 -37z"/>
<path d="M671 411 c-9 -6 -10 -11 -2 -15 6 -4 11 -18 11 -32 0 -16 6 -24 18
-24 11 0 13 3 5 8 -6 4 -13 22 -15 39 -2 24 -6 30 -17 24z"/>
<path d="M731 368 c2 -31 2 -31 6 -5 5 35 35 33 44 -3 6 -23 7 -22 8 8 1 29
-2 32 -29 32 -27 0 -30 -3 -29 -32z"/>
<path d="M831 374 c0 -11 3 -14 6 -6 3 7 2 16 -1 19 -3 4 -6 -2 -5 -13z"/>
<path d="M823 343 c9 -2 23 -2 30 0 6 3 -1 5 -18 5 -16 0 -22 -2 -12 -5z"/>
</g>
</svg>
