<?xml version="1.0" standalone="no"?>
<!DOCTYPE svg PUBLIC "-//W3C//DTD SVG 20010904//EN"
 "http://www.w3.org/TR/2001/REC-SVG-20010904/DTD/svg10.dtd">
<svg version="1.0" xmlns="http://www.w3.org/2000/svg"
 width="920.000000pt" height="920.000000pt" viewBox="0 0 920.000000 920.000000"
 preserveAspectRatio="xMidYMid meet">

<g transform="translate(0.000000,920.000000) scale(0.100000,-0.100000)"
fill="#000000" stroke="none">
<path d="M1464 8053 c3 -32 15 -161 26 -288 48 -557 71 -821 85 -970 13 -135
77 -865 130 -1475 55 -625 126 -1433 135 -1525 6 -60 24 -263 40 -450 102
-1169 127 -1436 136 -1444 5 -5 580 -172 1278 -371 l1270 -362 1270 362 c699
200 1274 366 1279 370 4 3 19 134 32 291 14 156 35 385 45 509 35 392 50 554
90 1020 52 590 92 1042 135 1525 19 215 55 622 80 905 24 283 49 562 55 620 5
58 26 290 46 515 19 226 43 500 53 610 10 110 16 203 14 208 -2 4 -1399 7
-3105 7 l-3100 0 6 -57z m4756 -1446 c0 -18 -9 -177 -20 -353 -33 -524 -90
-1440 -125 -2024 -30 -483 -64 -1054 -68 -1115 l-2 -29 -375 -124 c-206 -68
-530 -175 -720 -237 l-346 -114 -684 226 c-377 124 -702 231 -722 237 -35 9
-38 13 -38 46 0 19 -11 231 -25 470 -14 239 -25 450 -25 468 l0 32 363 0 364
0 6 -157 c4 -87 7 -190 7 -229 l0 -71 377 -128 377 -129 260 89 c144 48 312
106 373 128 130 45 118 26 128 212 4 61 14 229 24 375 10 146 17 268 15 271
-2 3 -363 5 -802 5 l-800 -1 -7 135 c-4 74 -13 237 -19 362 l-11 228 840 2
840 3 8 110 c4 61 16 222 26 360 11 137 17 253 15 257 -2 4 -569 6 -1259 5
-690 -1 -1255 0 -1255 3 0 3 -11 149 -25 325 -14 176 -25 337 -25 358 l0 37
1665 0 1665 0 0 -33z"/>
</g>
</svg>
