<?xml version="1.0" standalone="no"?>
<!DOCTYPE svg PUBLIC "-//W3C//DTD SVG 20010904//EN"
 "http://www.w3.org/TR/2001/REC-SVG-20010904/DTD/svg10.dtd">
<svg version="1.0" xmlns="http://www.w3.org/2000/svg"
 width="512.000000pt" height="512.000000pt" viewBox="0 0 512.000000 512.000000"
 preserveAspectRatio="xMidYMid meet">

<g transform="translate(0.000000,512.000000) scale(0.100000,-0.100000)"
fill="#000000" stroke="none">
<path d="M1197 4914 c-4 -4 -7 -148 -7 -321 l0 -313 110 0 110 0 0 105 0 105
95 0 95 0 0 -105 0 -105 105 0 105 0 0 320 0 320 -105 0 -105 0 0 -105 0 -105
-95 0 -94 0 -3 103 -3 102 -101 3 c-55 1 -103 0 -107 -4z"/>
<path d="M1910 4815 l0 -105 90 0 90 0 0 -215 0 -215 110 0 110 0 0 215 0 215
95 0 96 0 -3 103 -3 102 -292 3 -293 2 0 -105z"/>
<path d="M2590 4600 l0 -320 105 0 104 0 3 152 3 151 69 -107 c38 -59 72 -104
77 -99 4 4 37 53 73 108 l66 100 0 -152 0 -153 110 0 110 0 -2 318 -3 317
-110 3 -110 3 -64 -106 c-36 -58 -67 -108 -71 -110 -4 -2 -36 44 -72 103 l-65
107 -111 3 -112 3 0 -321z"/>
<path d="M3410 4600 l0 -320 255 0 255 0 0 105 0 105 -145 0 -145 0 -2 213 -3
212 -107 3 -108 3 0 -321z"/>
<path d="M890 3983 c0 -25 301 -3397 303 -3400 1 -1 309 -87 684 -191 l682
-190 683 190 c375 104 683 190 684 191 3 3 304 3375 304 3400 0 16 -86 17
-1670 17 -1584 0 -1670 -1 -1670 -17z m2716 -730 c-3 -27 -10 -106 -16 -178
-6 -71 -13 -145 -16 -162 l-5 -33 -799 0 -800 0 1 -37 c0 -21 8 -117 17 -213
l17 -175 763 -3 762 -2 0 -23 c0 -63 -111 -1252 -117 -1258 -5 -4 -197 -60
-428 -124 l-420 -117 -425 118 c-234 64 -428 120 -431 123 -4 3 -19 141 -33
306 -14 165 -28 315 -30 333 l-5 32 210 0 c160 0 209 -3 209 -12 0 -63 33
-334 41 -339 16 -10 442 -123 459 -122 15 2 462 122 466 126 5 6 47 527 43
531 -3 3 -329 9 -725 12 l-720 7 -53 606 c-29 333 -55 616 -58 629 l-5 22
1052 0 1052 0 -6 -47z"/>
</g>
</svg>
