<?xml version="1.0" standalone="no"?>
<!DOCTYPE svg PUBLIC "-//W3C//DTD SVG 20010904//EN"
 "http://www.w3.org/TR/2001/REC-SVG-20010904/DTD/svg10.dtd">
<svg version="1.0" xmlns="http://www.w3.org/2000/svg"
 width="920.000000pt" height="512.000000pt" viewBox="0 0 920.000000 512.000000"
 preserveAspectRatio="xMidYMid meet">

<g transform="translate(0.000000,512.000000) scale(0.100000,-0.100000)"
fill="#000000" stroke="none">
<path d="M5730 4485 c-573 -79 -971 -386 -1092 -843 -31 -118 -36 -329 -10
-452 85 -414 404 -697 1044 -930 332 -121 486 -219 555 -354 38 -73 44 -207
13 -288 -27 -74 -101 -155 -177 -196 -258 -137 -779 -93 -1227 104 -55 24
-100 43 -101 41 -1 -1 -40 -157 -87 -345 l-86 -344 67 -30 c160 -72 406 -140
644 -176 158 -24 559 -23 711 1 355 57 613 170 810 357 215 204 326 467 326
770 0 363 -129 624 -415 841 -143 109 -274 176 -570 294 -369 147 -491 211
-577 303 -66 71 -81 104 -86 200 -4 77 -2 87 27 147 51 103 139 166 289 207
64 17 106 21 242 21 242 -1 456 -43 665 -133 50 -21 91 -35 92 -32 5 13 172
618 178 643 6 25 3 28 -79 62 -158 66 -348 112 -571 137 -124 14 -470 11 -585
-5z"/>
<path d="M3160 3198 c0 -1031 -3 -1259 -15 -1338 -43 -286 -151 -429 -368
-487 -125 -34 -406 -19 -579 32 -38 11 -48 11 -48 2 0 -7 -20 -159 -45 -337
-25 -179 -45 -328 -45 -331 0 -8 161 -45 280 -65 208 -34 548 -29 745 12 351
72 606 259 754 551 62 123 100 246 133 428 22 119 22 130 26 1448 l3 1327
-421 0 -420 0 0 -1242z"/>
</g>
</svg>
