<?xml version="1.0" standalone="no"?>
<!DOCTYPE svg PUBLIC "-//W3C//DTD SVG 20010904//EN"
 "http://www.w3.org/TR/2001/REC-SVG-20010904/DTD/svg10.dtd">
<svg version="1.0" xmlns="http://www.w3.org/2000/svg"
 width="512.000000pt" height="512.000000pt" viewBox="0 0 512.000000 512.000000"
 preserveAspectRatio="xMidYMid meet">

<g transform="translate(0.000000,512.000000) scale(0.100000,-0.100000)"
fill="#000000" stroke="none">
<path d="M75 5110 c-11 -4 -31 -20 -45 -35 l-25 -27 0 -2489 0 -2489 33 -32
32 -33 2490 0 2490 0 32 33 33 32 0 2490 0 2490 -33 32 -32 33 -2478 2 c-1362
1 -2486 -2 -2497 -7z m2973 -2517 l-3 -208 -302 -3 -303 -2 0 -945 0 -945
-245 0 -245 0 0 945 0 945 -305 0 -305 0 0 210 0 210 855 0 855 0 -2 -207z
m1157 197 c109 -12 306 -48 324 -59 10 -7 11 -53 6 -228 l-8 -221 -101 49
c-135 64 -228 89 -356 96 -218 11 -349 -58 -381 -201 -17 -77 0 -127 66 -192
44 -42 95 -73 275 -163 268 -134 344 -182 435 -275 125 -127 171 -257 162
-461 -9 -204 -56 -325 -172 -440 -116 -116 -262 -175 -489 -197 -186 -17 -460
12 -696 74 l-85 23 -3 252 c-1 139 -1 253 1 253 2 0 41 -22 86 -50 138 -82
285 -132 443 -150 245 -28 397 60 398 230 0 111 -68 172 -359 319 -207 105
-322 182 -410 277 -124 133 -180 292 -167 477 11 162 56 280 143 377 99 110
270 186 478 213 64 8 325 6 410 -3z"/>
</g>
</svg>
